<?xml version="1.0" encoding="utf-8"?>
<!-- Generator: Adobe Illustrator 28.0.0, SVG Export Plug-In . SVG Version: 6.00 Build 0)  -->
<svg version="1.1" xmlns="http://www.w3.org/2000/svg" xmlns:xlink="http://www.w3.org/1999/xlink" x="0px" y="0px"
	 viewBox="0 0 266 297" style="enable-background:new 0 0 266 297;" xml:space="preserve">
<style type="text/css">
	.st0{fill:#F05623;}
	.st1{fill:#FFFFFF;}
	.st2{fill:#C8D92B;}
</style>
<g id="Layer_1">
</g>
<g id="logo_delimitado">
	<g>
		<path class="st0" d="M227,110.7c-0.24,0-0.47-0.08-0.67-0.24c-0.13-0.1-0.25-0.2-0.38-0.3c-2.81-2.24-5.76-4.12-8.8-5.61
			c-6.15-3.01-12.83-4.54-19.88-4.54c-7.14,0-14.54,1.53-22,4.55c-6.55,2.66-10.57,5.44-10.61,5.47c-0.11,0.08-0.23,0.13-0.36,0.16
			c-0.09,0.02-0.18,0.03-0.27,0.03c-0.22,0-0.45-0.07-0.64-0.21c-2.78-2.13-5.68-3.96-8.6-5.44c-6.7-3.39-13.81-5.1-21.16-5.1
			c-0.42,0-0.83,0.01-1.24,0.02c-7.03,0.18-14.14,1.89-21.15,5.07c-5.88,2.66-9.48,5.42-9.51,5.45c-0.19,0.15-0.42,0.22-0.65,0.22
			c-0.25,0-0.5-0.09-0.69-0.26c-2.79-2.15-5.75-3.97-8.82-5.4c-6.08-2.84-12.73-4.29-19.78-4.29c-7.14,0-14.59,1.45-22.15,4.3
			c-5.84,2.2-9.86,4.56-10.95,5.24l-0.4,0.25c-0.17,0.11-0.37,0.16-0.56,0.16c-0.18,0-0.35-0.04-0.51-0.13
			c-0.34-0.19-0.55-0.54-0.55-0.93V92.85c0-20,10.58-38.72,27.62-48.86c15.44-9.19,39.94-20.13,68.98-20.13
			c23.14,0,45.94,6.86,67.75,20.4c16.93,10.5,27.03,28.64,27.03,48.51v16.88c0,0.41-0.23,0.78-0.6,0.96
			C227.31,110.66,227.15,110.7,227,110.7z"/>
		<path class="st0" d="M133.27,24.91c20.54,0,43.31,5.42,67.19,20.24C216.94,55.37,227,73.37,227,92.76v16.88
			c-0.14-0.11-0.27-0.22-0.41-0.32c-2.96-2.36-5.97-4.24-8.97-5.71c-6.92-3.39-13.86-4.65-20.34-4.65c-8.67,0-16.51,2.25-22.4,4.63
			c-6.43,2.61-10.53,5.38-10.82,5.58h-0.01c-0.01,0.01-0.01,0.01-0.01,0.01c-2.94-2.25-5.87-4.07-8.77-5.54
			c-7.54-3.82-14.9-5.22-21.63-5.22c-0.42,0-0.85,0.01-1.27,0.02c-8.57,0.22-16.06,2.67-21.56,5.17c-6.08,2.75-9.72,5.58-9.72,5.58
			l-0.01-0.01c-2.97-2.3-6.01-4.13-9.05-5.55c-6.83-3.2-13.74-4.39-20.23-4.39c-8.63,0-16.51,2.1-22.52,4.37
			c-5.82,2.19-9.88,4.56-11.13,5.33c-0.27,0.17-0.41,0.25-0.41,0.25V92.85c0-19.64,10.24-37.91,27.11-47.95
			C81.69,34.87,105.44,24.91,133.27,24.91 M133.28,22.79v2.12V22.79c-29.29,0-53.97,11.03-69.53,20.28
			C46.39,53.4,35.61,72.48,35.61,92.85v16.33c0,0.77,0.42,1.48,1.09,1.86c0.32,0.18,0.67,0.27,1.03,0.27c0.39,0,0.78-0.11,1.12-0.32
			l0.4-0.24c1.07-0.66,5.01-2.98,10.77-5.15c7.43-2.81,14.76-4.23,21.77-4.23c6.89,0,13.39,1.41,19.33,4.19
			c3,1.41,5.9,3.19,8.63,5.29c0.39,0.31,0.86,0.46,1.33,0.46c0.46,0,0.91-0.14,1.29-0.44c0.03-0.03,3.55-2.72,9.3-5.32
			c6.88-3.13,13.86-4.8,20.74-4.98c0.4-0.01,0.81-0.02,1.21-0.02c7.18,0,14.13,1.68,20.68,4.99c2.87,1.45,5.71,3.25,8.44,5.34
			c0.38,0.29,0.84,0.44,1.29,0.44c0.35,0,0.71-0.09,1.02-0.26c0.07-0.04,0.14-0.08,0.21-0.13c0.04-0.03,4.07-2.79,10.4-5.35
			c7.33-2.97,14.6-4.48,21.6-4.48c6.88,0,13.41,1.49,19.41,4.43c2.97,1.45,5.86,3.29,8.58,5.46c0.02,0.01,0.03,0.03,0.05,0.04
			c0.12,0.09,0.23,0.18,0.35,0.27c0.39,0.31,0.86,0.48,1.34,0.48c0.31,0,0.62-0.07,0.91-0.21c0.74-0.35,1.21-1.1,1.21-1.92V92.76
			c0-9.87-2.54-19.65-7.36-28.28c-4.81-8.62-11.78-15.93-20.18-21.14C179.6,29.7,156.62,22.79,133.28,22.79L133.28,22.79z"/>
	</g>
	<g>
		<path class="st1" d="M164.06,106.17c0.05-0.3,0.1-0.59,0.15-0.89h0.01c4.96-29-16.47-80.56-16.47-80.56"/>
		<path class="st1" d="M164.06,106.17c-0.05-0.31-0.11-0.63-0.14-0.93c-0.03-0.18,0.17-0.22,0.3-0.25c0,0-0.29,0.24-0.29,0.24
			c-0.96-7.09-2.35-13.58-3.86-20.16c-4.54-20.11-10.44-39.59-12.32-60.35C163.61,44.17,175.25,84.09,164.06,106.17L164.06,106.17z"
			/>
	</g>
	<g>
		<path class="st1" d="M116.49,24.72c0,0-21.66,37.08-15.4,81.53"/>
		<path class="st1" d="M116.49,24.72c-3.58,17.23-7.65,33.46-10.63,50.59c-1.84,10.42-2.89,20.16-4.77,30.94
			c-0.75-1.67-1.42-3.37-2.02-5.1C90.83,76.75,98.26,43.03,116.49,24.72L116.49,24.72z"/>
	</g>
</g>
<g id="logo_negativo">
	<g>
		<path class="st0" d="M135.8,101.28l-3.18,132.98l-3.18-132.98C129.47,96.99,135.75,96.96,135.8,101.28L135.8,101.28z"/>
	</g>
	<g>
		<path class="st2" d="M97.61,188.72c-13.02,5.31-45.38,17.12-49.29,30.66c-0.11,1.34,0.15,1.77,0.87,2.88
			c1.05,1.53,2.64,3.05,4.41,4.26c10.55,7.24,23.81,11.02,36.22,14.39c27.52,7.22,57.54,8.21,85.74,3.74
			c13.51-2.26,28.21-5.71,39.23-13.59c13.93-9.94,5.16-20.27-6.21-27.32c-12.81-7.74-27.81-12.11-42.51-15.24
			c0,0,0.33-2.18,0.33-2.18s1.16,0.11,1.16,0.11c19.39,1.95,54.06,7.64,63.04,27.91c4.02,9.6-1.23,19.57-8.36,25.69
			c-22.88,19.17-60.96,24.58-89.94,25.8c-27.53,0.57-57.28-0.15-82.37-13.54c-14.26-7.52-28.1-22.68-20.99-39.98
			c7.59-16.92,28.57-22.8,45-25.19c8.21-1.07,16.37-1.31,24.51-0.62c0,0,0.27,1.77,0.27,1.77S97.61,188.72,97.61,188.72
			L97.61,188.72z"/>
	</g>
	<g>
		<path class="st0" d="M41.56,106.67c0,0,90.8,127.6,90.8,127.6l-95.91-123.8C33.93,107.02,38.97,103.24,41.56,106.67L41.56,106.67z
			"/>
	</g>
	<g>
		<path class="st0" d="M227.67,111.41l-95.31,122.85c0,0,90.2-126.65,90.2-126.65C225.12,104.21,230.2,107.94,227.67,111.41
			L227.67,111.41z"/>
	</g>
</g>
</svg>
